<?xml version="1.0" encoding="utf-8"?>
<!-- Generator: Adobe Illustrator 25.4.1, SVG Export Plug-In . SVG Version: 6.00 Build 0)  -->
<svg version="1.1" id="Layer_1" xmlns="http://www.w3.org/2000/svg" xmlns:xlink="http://www.w3.org/1999/xlink" x="0px" y="0px"
	 viewBox="0 0 512 512" style="enable-background:new 0 0 512 512;" xml:space="preserve">
<style type="text/css">
	.st0{fill:#AABECE;}
	.st1{fill:#CFDFE8;}
	.st2{fill:#D3843D;}
	.st3{fill:#FFD782;}
</style>
<path class="st0" d="M256,441.4L35.3,353.1V185.4L0,0.1l256,88.3V441.4z"/>
<path class="st1" d="M256,441.4l220.7-88.3V185.4L511.9,0.1L256,88.3V441.4z"/>
<path class="st2" d="M328.6,63.3l-7.4-37.1C318.9,14.5,307.6,7,296,9.3c-4.2,0.8-8,2.9-11,5.9l-5.1,5.1c-4,4-9.5,6.3-15.2,6.3h-17.5
	c-5.7,0-11.1-2.3-15.2-6.3l-5.1-5.1c-8.4-8.4-22-8.4-30.3,0c-3,3-5,6.8-5.9,11l-7.4,37.1l72.7,25L328.6,63.3z M123.6,388.4
	l-8.8,88.3h132.4L256,459l8.8,17.7h132.4l-8.8-88.3l-132.4,53L123.6,388.4z"/>
<path class="st3" d="M0,185.4h70.6v61.8H0V185.4z M441.3,185.4h70.6v61.8h-70.6V185.4z"/>
<g>
	<path class="st0" d="M291.3,123.7c-4.9,0-8.8-4-8.8-8.8c0-3.7,2.4-7.1,5.9-8.3l176.5-61.8c4.6-1.6,9.6,0.8,11.2,5.4
		s-0.8,9.6-5.4,11.2l-176.5,61.8C293.2,123.5,292.3,123.7,291.3,123.7L291.3,123.7z M291.3,282.5c-4.9,0-8.8-4-8.8-8.8
		c0-3.6,2.2-6.9,5.5-8.2l132.4-53c4.5-1.8,9.7,0.5,11.4,5c1.7,4.5-0.4,9.5-4.9,11.4l-132.4,53C293.5,282.3,292.4,282.5,291.3,282.5
		L291.3,282.5z M291.3,317.8c-4.9,0-8.8-4-8.8-8.8c0-3.6,2.2-6.9,5.5-8.2l132.4-53c4.5-1.8,9.7,0.4,11.5,4.9l0,0
		c1.8,4.5-0.4,9.7-4.9,11.5l0,0l0,0l-132.4,53C293.5,317.6,292.4,317.8,291.3,317.8L291.3,317.8z M291.3,353.1
		c-4.9,0-8.8-3.9-8.8-8.8l0,0c0-3.6,2.2-6.9,5.5-8.2l132.4-53c4.5-1.8,9.7,0.4,11.5,4.9l0,0c1.8,4.5-0.4,9.7-4.9,11.5l0,0l0,0
		l-132.4,53C293.5,352.9,292.4,353.1,291.3,353.1L291.3,353.1z M291.3,388.4c-4.9,0-8.8-4-8.8-8.8c0-3.6,2.2-6.9,5.5-8.2l132.4-53
		c4.5-1.8,9.7,0.4,11.5,4.9l0,0c1.8,4.5-0.4,9.7-4.9,11.5l0,0l0,0l-132.4,53C293.5,388.2,292.4,388.4,291.3,388.4L291.3,388.4z
		 M291.3,159c-4.9,0-8.8-4-8.8-8.8c0-3.7,2.4-7.1,5.9-8.3L464.9,80c4.6-1.5,9.6,1,11.2,5.6c1.5,4.5-0.9,9.4-5.3,11.1l-176.5,61.8
		C293.2,158.8,292.3,159,291.3,159L291.3,159z M291.3,185.4v53l61.8-26.5v-53L291.3,185.4z M379.5,176.6c-4.9,0-8.8-4-8.8-8.8
		c0-3.7,2.3-7,5.7-8.3L447,133c4.6-1.7,9.7,0.5,11.4,5.1c1.7,4.6-0.5,9.7-5.1,11.4h-0.1L382.6,176
		C381.6,176.4,380.6,176.6,379.5,176.6L379.5,176.6z"/>
	<path class="st1" d="M220.7,123.7c-1,0-2-0.2-2.9-0.5L41.2,61.4c-4.6-1.6-7-6.6-5.4-11.2l0,0c1.6-4.6,6.6-7,11.2-5.4l0,0
		l176.5,61.8c4.6,1.6,7,6.6,5.4,11.3C227.7,121.3,224.4,123.7,220.7,123.7L220.7,123.7z M97.1,114.8c-1.1,0-2.2-0.2-3.3-0.6
		L49.7,96.5c-4.5-1.9-6.7-7-4.8-11.5c1.8-4.4,6.9-6.6,11.4-4.9l44.1,17.7c4.5,1.8,6.7,6.9,4.9,11.5l0,0
		C103.9,112.6,100.7,114.8,97.1,114.8L97.1,114.8z M97.1,150.1c-1.1,0-2.2-0.2-3.3-0.6l-44.1-17.7c-4.5-1.9-6.7-7-4.8-11.5
		c1.8-4.4,6.9-6.6,11.4-4.9l44.1,17.7c4.5,1.8,6.7,7,4.9,11.5C103.9,147.9,100.7,150.1,97.1,150.1L97.1,150.1z M132.4,123.6v114.7
		l88.3,35.3V158.9L132.4,123.6z M220.6,317.8c-1.1,0-2.2-0.2-3.3-0.6L129,281.9c-4.5-1.8-6.7-7-4.9-11.5c1.8-4.5,6.9-6.7,11.4-4.9
		l88.3,35.3c4.5,1.8,6.7,7,4.9,11.5C227.5,315.6,224.3,317.8,220.6,317.8z M220.6,353.1c-1.2,0-2.3-0.2-3.4-0.7l-150-61.8
		c-4.5-1.9-6.7-7-4.8-11.5l0,0c1.9-4.5,7-6.7,11.5-4.8l0,0l150,61.8c4.5,1.9,6.7,7,4.8,11.5l0,0C227.5,351,224.2,353.1,220.6,353.1
		L220.6,353.1z M220.6,388.4c-1.2,0-2.3-0.2-3.4-0.7L67.2,326c-4.5-1.9-6.7-7-4.8-11.5l0,0c1.9-4.5,7-6.7,11.5-4.8l150,61.8
		c4.5,1.9,6.7,7,4.8,11.5l0,0C227.5,386.3,224.2,388.4,220.6,388.4L220.6,388.4z"/>
</g>
</svg>
